<svg width="180" height="131" viewBox="0 0 180 131" fill="none" xmlns="http://www.w3.org/2000/svg">
<g id="Logo">
<path id="Vector 2" d="M121.079 22.2267C100.36 13.6647 110.288 48.5368 117.842 67.0431L95.1797 87.1101L63.4531 50.3205C63.4531 38.9492 69.7984 13.6647 95.1797 3.49742C120.561 -6.66988 131.223 16.6525 133.381 29.5846L135.324 34.9358C133.813 34.7128 130.791 33.3304 130.791 29.5846C130.791 25.8387 124.316 23.1185 121.079 22.2267Z" fill="#6D9CA6" stroke="#781313"/>
<path id="Vector 3" d="M31.0792 45.6382C52.3166 29.5846 85.6835 71.5024 99.7123 94.4681L93.2375 114.535L53.0936 104.502C42.7339 51.5246 21.5828 81.09 12.3023 102.495L10.3598 110.522C8.41735 95.5829 9.84182 61.6919 31.0792 45.6382Z" fill="#FFB100" stroke="#561F1F"/>
<path id="Vector 1" d="M146.978 81.7588C123.669 79.6183 117.842 112.528 117.842 129.251C109.554 126.04 87.7989 123.64 80.4608 123.417C77.8709 114.721 108.129 49.6516 139.209 51.6584C164.072 53.2637 172.662 85.7722 171.583 101.157L169.64 107.846L166.403 101.157C158.633 87.7789 150.216 82.6506 146.978 81.7588Z" fill="#F82203" stroke="#781313"/>
<g id="Vector 4">
<path d="M121.079 105.839C118.489 115.472 117.842 125.906 117.842 129.92C79.2464 118.378 60.9646 125.764 56.4358 128.842C56.2556 129.41 56.0087 129.785 55.6834 129.92C54.9851 130.208 55.1905 129.688 56.4358 128.842C57.6906 124.881 55.7095 111.52 54.3884 104.502C69.928 95.9396 105.324 101.826 121.079 105.839Z" fill="#014B72"/>
<path d="M117.842 129.92C117.842 125.906 118.489 115.472 121.079 105.839C105.324 101.826 69.928 95.9396 54.3884 104.502C55.8992 112.528 58.2733 128.85 55.6834 129.92C52.446 131.258 68.633 115.204 117.842 129.92Z" stroke="#781313"/>
</g>
<path id="Ellipse 2" d="M18.9245 112.528C18.9245 117.809 14.7848 122.062 9.71223 122.062C4.63967 122.062 0.5 117.809 0.5 112.528C0.5 107.248 4.63967 102.995 9.71223 102.995C14.7848 102.995 18.9245 107.248 18.9245 112.528Z" fill="#5D8164" stroke="#781313"/>
<path id="Ellipse 5" d="M179.5 111.191C179.5 116.471 175.36 120.724 170.288 120.724C165.215 120.724 161.075 116.471 161.075 111.191C161.075 105.91 165.215 101.657 170.288 101.657C175.36 101.657 179.5 105.91 179.5 111.191Z" fill="#5D8164" stroke="#781313"/>
<path id="Ellipse 3" d="M141.946 36.2736C141.946 40.8154 138.386 44.4693 134.029 44.4693C129.671 44.4693 126.112 40.8154 126.112 36.2736C126.112 31.7318 129.671 28.0779 134.029 28.0779C138.386 28.0779 141.946 31.7318 141.946 36.2736Z" fill="#5D8164" stroke="#781313"/>
</g>
</svg>
